<?xml version="1.0" encoding="UTF-8"?>
<!DOCTYPE svg PUBLIC "-//W3C//DTD SVG 1.1//EN" "http://www.w3.org/Graphics/SVG/1.1/DTD/svg11.dtd">
<svg xmlns="http://www.w3.org/2000/svg" xmlns:xlink="http://www.w3.org/1999/xlink" version="1.1" width="85px" height="31px" viewBox="-0.5 -0.5 85 31"><defs/><g><path d="M 29.4 6.01 C 32.64 1 38.44 -1.17 43.8 0.62 C 49.16 2.42 52.87 7.78 53 13.92 C 53.13 20.06 49.65 25.6 44.38 27.67 C 39.1 29.74 33.21 27.87 29.76 23.03" fill="none" stroke="#c7c7c7" stroke-miterlimit="10" transform="rotate(-180,40,14.25)" pointer-events="all"/><path d="M 20.89 29 L 0.55 0" fill="none" stroke="#c7c7c7" stroke-miterlimit="10" pointer-events="none"/><path d="M -0.18 29 L 20.16 0" fill="none" stroke="#c7c7c7" stroke-miterlimit="10" pointer-events="none"/><path d="M 59.4 6.01 C 62.64 1 68.44 -1.17 73.8 0.62 C 79.16 2.42 82.87 7.78 83 13.92 C 83.13 20.06 79.65 25.6 74.38 27.67 C 69.1 29.74 63.21 27.87 59.76 23.03" fill="none" stroke="#c7c7c7" stroke-miterlimit="10" transform="rotate(-180,70,14.25)" pointer-events="none"/></g></svg>